<svg version="1.2" xmlns="http://www.w3.org/2000/svg" viewBox="0 0 16 16" width="8" height="8">
	<style>
		.s0 { fill: #000000 }
	</style>
	<path class="s0" d="m1.5 1.5q0-0.1 0.04-0.19 0.04-0.09 0.11-0.16 0.07-0.07 0.16-0.11 0.09-0.04 0.19-0.04h12q0.1 0 0.19 0.04 0.09 0.04 0.16 0.11 0.07 0.07 0.11 0.16 0.04 0.09 0.04 0.19v2q0 0.05-0.01 0.09-0.01 0.05-0.02 0.09-0.02 0.04-0.04 0.08-0.03 0.04-0.06 0.07l-4.37 4.86v4.81q0 0.08-0.02 0.15-0.03 0.08-0.07 0.14-0.05 0.07-0.11 0.11-0.07 0.05-0.14 0.07l-3 1q-0.12 0.04-0.24 0.02-0.11-0.01-0.21-0.08-0.1-0.08-0.15-0.18-0.06-0.11-0.06-0.23v-5.81l-4.37-4.86q-0.03-0.03-0.06-0.07-0.02-0.04-0.04-0.08-0.01-0.04-0.02-0.09-0.01-0.04-0.01-0.09z"/>
</svg>
